:SAMPLES-PER-SECOND 30
:FULLY-SPECIFIED
:DEGREES
736
root  -51.3237 39.4039 -0.959166 20.6814 82.5008 21.1399
RightUpLeg  -18.9389 -6.44064 -4.30441
RightLeg  -0.255189 6.96861 0.138447
RightFoot  -0.171961 -1.09916 11.4512
RightToes  -8.3237e-009 0 -3.6325e-017
Spine  6.2444 -0.65224 -2.47517
Spine1  5.34845 -0.257464 -2.2424
HEad  -19.8271 2.67307 -3.93471
LeftShoulder1  -0.576877 5.02036 -31.8908
LeftArm  5.67037 5.58002 -39.2796
LeftForeArm  28.4647 -39.0691 -7.30051
LeftHand  -0.0305676 5.01101 1.48756
RightShoulder  -1.03048 -6.30901 30.1824
RightArm  14.7515 -8.26638 44.536
RightForeArm  15.304 13.398 5.7032
RightHand  -0.046458 4.70584 -0.833345
LeftUpLeg  7.97773 6.36023 -4.45437
LeftLeg  11.2468 5.3022 0.113468
LeftFoot  -17.5595 0.255627 2.7586
LeftToes  -1.18267e-011 3.61711e-011 9.57411e-011
737
root  -50.3645 39.2852 -0.725219 18.5972 82.9003 18.9781
RightUpLeg  -20.5079 -5.3148 -3.19386
RightLeg  4.2962 7.36518 0.176573
RightFoot  5.25023 -0.914477 6.51199
RightToes  -8.3237e-009 0 -3.6325e-017
Spine  6.4136 -0.759292 -1.81209
Spine1  5.40823 -0.517521 -1.59001
HEad  -20.2593 2.67113 -4.1872
LeftShoulder1  -0.635888 5.1605 -32.2239
LeftArm  6.44956 5.98931 -39.6472
LeftForeArm  28.0281 -37.4539 -6.86436
LeftHand  -0.0296678 5.11406 1.44601
RightShoulder  -1.00455 -6.26022 29.8902
RightArm  15.3328 -8.66761 45.2175
RightForeArm  15.3044 13.9483 5.64908
RightHand  0.00721802 5.0482 -0.224646
LeftUpLeg  9.58221 6.49832 -3.75349
LeftLeg  11.2571 4.68861 0.484351
LeftFoot  -18.5267 0.236548 2.00162
LeftToes  -1.18267e-011 3.61711e-011 9.57411e-011
738
root  -49.3048 39.1175 -0.464602 13.9879 83.7228 14.4823
RightUpLeg  -21.3007 -4.19515 -2.37788
RightLeg  8.69329 7.71823 0.59167
RightFoot  9.08289 -0.560833 3.39905
RightToes  -8.3237e-009 0 -3.6325e-017
Spine  6.61146 -1.09878 -0.536657
Spine1  5.28054 -0.862615 -1.4863
HEad  -20.1168 3.00435 -4.24921
LeftShoulder1  -0.685126 5.26523 -32.7465
LeftArm  7.76668 6.56447 -39.4393
LeftForeArm  27.3138 -35.8503 -6.47189
LeftHand  -0.0296576 5.01128 1.24163
RightShoulder  -1.03021 -6.31282 30.1254
RightArm  16.4753 -8.86114 45.3246
RightForeArm  14.6885 14.4902 5.69412
RightHand  -0.0521429 4.77504 -0.89008
LeftUpLeg  10.8156 6.6435 -2.50496
LeftLeg  12.8294 3.64019 0.9159
LeftFoot  -19.8122 0.16993 0.698738
LeftToes  -1.18267e-011 3.61711e-011 9.57411e-011
739
root  -48.2384 38.9578 -0.205532 4.43616 84.459 5.32837
RightUpLeg  -21.8388 -2.92431 -1.71646
RightLeg  14.0938 6.62655 1.45096
RightFoot  8.20725 -0.125456 1.043
RightToes  -8.3237e-009 0 -3.6325e-017
Spine  7.29514 -1.48381 1.72772
Spine1  4.78187 -0.95181 -2.3425
HEad  -20.2887 2.95798 -4.34693
LeftShoulder1  -0.659914 5.18747 -33.0325
LeftArm  9.06106 7.01969 -39.6034
LeftForeArm  26.3104 -33.3875 -5.89315
LeftHand  -0.0264799 5.66534 1.19684
RightShoulder  -1.07074 -6.39748 30.4611
RightArm  17.5553 -8.92838 45.3682
RightForeArm  14.5749 15.0769 5.66082
RightHand  -0.039268 4.74474 -0.744197
LeftUpLeg  11.2829 5.82802 -1.01255
LeftLeg  16.526 3.02883 1.42179
LeftFoot  -20.748 -0.0108788 -1.62127
LeftToes  -1.18267e-011 3.61711e-011 9.57411e-011
740
root  -47.2081 38.8023 0.0434798 -7.97504 84.4973 -6.70694
RightUpLeg  -22.0593 -1.92296 -0.641486
RightLeg  18.7777 5.55848 1.89175
RightFoot  5.66133 0.0794533 -0.277682
RightToes  -8.3237e-009 0 -3.6325e-017
Spine  7.96729 -1.61926 3.64276
Spine1  4.63717 -0.931838 -2.22404
HEad  -20.5081 2.56855 -4.65078
LeftShoulder1  -0.685694 5.24035 -33.3281
LeftArm  9.76034 7.49183 -40.2144
LeftForeArm  25.3929 -30.3766 -5.21099
LeftHand  -0.0297942 5.40609 0.391809
RightShoulder  -1.08914 -6.44942 30.4294
RightArm  19.1213 -8.34134 45.3906
RightForeArm  14.3562 15.5218 5.73147
RightHand  -0.0427741 4.87038 -0.773549
LeftUpLeg  10.5601 5.03074 0.663
LeftLeg  22.4032 2.50281 1.44667
LeftFoot  -20.7587 -0.298255 -5.18018
LeftToes  -1.18267e-011 3.61711e-011 9.57411e-011
741
root  -46.2924 38.6953 0.292979 -19.5948 85.2482 -18.2136
RightUpLeg  -21.9345 -2.80935 0.44723
RightLeg  22.1465 5.07235 2.05606
RightFoot  3.03543 0.18369 -1.27661
RightToes  -8.3237e-009 0 -3.6325e-017
Spine  8.58419 -1.94634 4.70384
Spine1  4.42564 -1.23629 -1.06674
HEad  -20.5209 2.25429 -4.87424
LeftShoulder1  -0.616379 5.06579 -33.3051
LeftArm  11.3629 7.98102 -40.7904
LeftForeArm  23.3171 -27.3518 -4.63111
LeftHand  -0.0334978 5.53914 0.256851
RightShoulder  -0.971203 -6.17801 29.7578
RightArm  19.8287 -8.3691 45.7645
RightForeArm  13.9985 16.3979 5.48477
RightHand  0.00652423 4.44355 -0.208882
LeftUpLeg  7.87374 4.69792 2.4766
LeftLeg  30.3704 0.782352 0.81782
LeftFoot  -18.3582 -0.446502 -9.21667
LeftToes  -1.18267e-011 3.61711e-011 9.57411e-011
742
root  -45.4345 38.637 0.492601 -34.048 85.8796 -32.8415
RightUpLeg  -21.5771 -4.55538 1.38746
RightLeg  24.3296 5.5191 2.49604
RightFoot  0.659037 0.151119 -1.3911
RightToes  -8.3237e-009 0 -3.6325e-017
Spine  9.00824 -2.33992 6.35296
Spine1  4.09424 -1.39908 -0.862523
HEad  -20.5984 2.05567 -4.19878
LeftShoulder1  -0.599396 5.03489 -32.993
LeftArm  13.4911 8.01194 -41.4135
LeftForeArm  21.9885 -24.683 -4.13376
LeftHand  -0.0330552 5.372 -0.303521
RightShoulder  -0.96063 -6.1782 29.3561
RightArm  20.5509 -8.09365 46.0006
RightForeArm  12.4411 17.4399 5.23721
RightHand  -0.0426923 4.48356 -0.792203
LeftUpLeg  3.54422 4.67756 4.24215
LeftLeg  39.5239 -0.0833539 0.36525
LeftFoot  -12.5391 -0.0568326 -10.5083
LeftToes  -1.18267e-011 3.61711e-011 9.57411e-011
743
root  -44.6034 38.5936 0.604783 -45.4445 85.2839 -44.4268
RightUpLeg  -20.8215 -5.89422 2.5899
RightLeg  25.4467 6.43773 3.10062
RightFoot  -1.33602 0.110293 -1.35885
RightToes  -8.3237e-009 0 -3.6325e-017
Spine  9.43877 -2.245 9.33307
Spine1  3.6442 -0.73 -2.31764
HEad  -20.3456 0.811217 -3.66437
LeftShoulder1  -0.536005 4.87729 -32.8788
LeftArm  14.9617 7.99101 -41.6774
LeftForeArm  21.8177 -23.1434 -3.88886
LeftHand  -0.0349141 5.58756 0.391537
RightShoulder  -0.984015 -6.23903 29.4198
RightArm  22.2083 -7.77917 45.1828
RightForeArm  11.2526 20.0633 4.58568
RightHand  0.065639 4.77585 0.453356
LeftUpLeg  -0.953453 5.61603 5.7264
LeftLeg  47.8921 0.76486 1.32247
LeftFoot  -6.20733 0.409715 -8.18806
LeftToes  -1.18267e-011 3.61711e-011 9.57411e-011
744
root  -43.8619 38.5687 0.637241 -47.2256 84.3616 -46.0281
RightUpLeg  -19.9013 -7.12219 3.34529
RightLeg  26.5781 7.76784 3.97647
RightFoot  -2.80351 0.0834288 -1.38549
RightToes  -8.3237e-009 0 -3.6325e-017
Spine  10.3767 -2.04978 11.3539
Spine1  3.44588 -0.146912 -3.0197
HEad  -20.5797 0.880007 -3.2347
LeftShoulder1  -0.53181 4.86493 -32.9224
LeftArm  13.9521 8.68234 -41.8619
LeftForeArm  23.3214 -23.2226 -3.8447
LeftHand  -0.0342849 5.38329 -0.57662
RightShoulder  -0.902398 -6.04149 28.9748
RightArm  24.6167 -6.53872 44.2388
RightForeArm  8.31208 22.6418 4.55033
RightHand  -0.0617962 4.74684 -1.01351
LeftUpLeg  -4.20019 7.02293 6.37757
LeftLeg  53.4343 0.46908 1.13391
LeftFoot  -5.77138 0.322903 -5.89622
LeftToes  -1.18267e-011 3.61711e-011 9.57411e-011
745
root  -43.211 38.5495 0.628757 -40.0918 83.7915 -38.6373
RightUpLeg  -19.4108 -8.0364 3.0268
RightLeg  28.321 9.21508 5.10372
RightFoot  -4.03286 0.0780398 -1.62447
RightToes  -8.3237e-009 0 -3.6325e-017
Spine  11.9313 -1.69302 11.451
Spine1  2.95636 0.222632 -2.44462
HEad  -21.8476 0.636762 -3.6327
LeftShoulder1  -0.547483 4.90153 -33.0298
LeftArm  13.3129 9.78347 -42.0411
LeftForeArm  22.4316 -23.9829 -3.94876
LeftHand  -0.0366293 5.74984 0.656656
RightShoulder  -0.776449 -5.74541 27.9977
RightArm  26.0802 -4.31202 43.2952
RightForeArm  8.43215 25.1632 4.9322
RightHand  -0.0563415 5.77233 -0.895876
LeftUpLeg  -6.94147 8.42682 5.5211
LeftLeg  56.4083 -0.748442 -0.695445
LeftFoot  -7.56149 0.254168 -6.23489
LeftToes  -1.18267e-011 3.61711e-011 9.57411e-011
